<?xml version="1.0" encoding="UTF-8" standalone="no"?>
<!DOCTYPE svg PUBLIC "-//W3C//DTD SVG 1.1//EN"
 "http://www.w3.org/Graphics/SVG/1.1/DTD/svg11.dtd">
<!-- Generated by graphviz version 2.40.1 (20161225.0304)
 -->
<!-- Title: ergw_supervision_tree Pages: 1 -->
<svg width="2279pt" height="260pt"
 viewBox="0.00 0.00 2278.64 260.00" xmlns="http://www.w3.org/2000/svg" xmlns:xlink="http://www.w3.org/1999/xlink">
<g id="graph0" class="graph" transform="scale(1 1) rotate(0) translate(4 256)">
<title>ergw_supervision_tree</title>
<polygon fill="#ffffff" stroke="transparent" points="-4,4 -4,-256 2274.6442,-256 2274.6442,4 -4,4"/>
<!-- ergw_app -->
<g id="node1" class="node">
<title>ergw_app</title>
<ellipse fill="#f5f5dc" stroke="#000000" cx="1201.5975" cy="-234" rx="45.4919" ry="18"/>
<text text-anchor="middle" x="1201.5975" y="-230.3" font-family="Times,serif" font-size="14.00" fill="#000000">ergw_app</text>
</g>
<!-- ergw_sup -->
<g id="node2" class="node">
<title>ergw_sup</title>
<ellipse fill="#f0ffff" stroke="#000000" cx="1201.5975" cy="-162" rx="44.6926" ry="18"/>
<text text-anchor="middle" x="1201.5975" y="-158.3" font-family="Times,serif" font-size="14.00" fill="#000000">ergw_sup</text>
</g>
<!-- ergw_app&#45;&gt;ergw_sup -->
<g id="edge1" class="edge">
<title>ergw_app&#45;&gt;ergw_sup</title>
<path fill="none" stroke="#000000" d="M1201.5975,-215.8314C1201.5975,-208.131 1201.5975,-198.9743 1201.5975,-190.4166"/>
<polygon fill="#000000" stroke="#000000" points="1205.0976,-190.4132 1201.5975,-180.4133 1198.0976,-190.4133 1205.0976,-190.4132"/>
</g>
<!-- ergw -->
<g id="node3" class="node">
<title>ergw</title>
<ellipse fill="#adff2f" stroke="#000000" cx="28.5975" cy="-90" rx="28.6953" ry="18"/>
<text text-anchor="middle" x="28.5975" y="-86.3" font-family="Times,serif" font-size="14.00" fill="#000000">ergw</text>
</g>
<!-- ergw_sup&#45;&gt;ergw -->
<g id="edge2" class="edge">
<title>ergw_sup&#45;&gt;ergw</title>
<path fill="none" stroke="#000000" d="M1156.8188,-160.9385C959.4883,-156.1166 172.5461,-135.3243 65.5975,-108 63.6249,-107.496 61.6331,-106.8812 59.6505,-106.1864"/>
<polygon fill="#000000" stroke="#000000" points="60.5286,-102.7628 49.9493,-102.1895 57.862,-109.235 60.5286,-102.7628"/>
</g>
<!-- ergw_sx_socket -->
<g id="node4" class="node">
<title>ergw_sx_socket</title>
<ellipse fill="#ffe4c4" stroke="#000000" cx="142.5975" cy="-90" rx="67.6881" ry="18"/>
<text text-anchor="middle" x="142.5975" y="-86.3" font-family="Times,serif" font-size="14.00" fill="#000000">ergw_sx_socket</text>
</g>
<!-- ergw_sup&#45;&gt;ergw_sx_socket -->
<g id="edge16" class="edge">
<title>ergw_sup&#45;&gt;ergw_sx_socket</title>
<path fill="none" stroke="#000000" d="M1156.7299,-160.5755C989.7402,-155.1118 404.3554,-134.4678 219.5975,-108 213.4439,-107.1185 207.0581,-105.9856 200.7148,-104.7179"/>
<polygon fill="#000000" stroke="#000000" points="201.3283,-101.2704 190.8213,-102.6317 199.8839,-108.1198 201.3283,-101.2704"/>
</g>
<!-- ergw_gtp_socket_reg -->
<g id="node6" class="node">
<title>ergw_gtp_socket_reg</title>
<ellipse fill="#adff2f" stroke="#000000" cx="314.5975" cy="-90" rx="86.3847" ry="18"/>
<text text-anchor="middle" x="314.5975" y="-86.3" font-family="Times,serif" font-size="14.00" fill="#000000">ergw_gtp_socket_reg</text>
</g>
<!-- ergw_sup&#45;&gt;ergw_gtp_socket_reg -->
<g id="edge3" class="edge">
<title>ergw_sup&#45;&gt;ergw_gtp_socket_reg</title>
<path fill="none" stroke="#000000" d="M1156.8179,-160.7811C1035.9708,-157.0951 693.2389,-144.0194 410.5975,-108 402.6449,-106.9865 394.3555,-105.7335 386.1249,-104.3639"/>
<polygon fill="#000000" stroke="#000000" points="386.5903,-100.8926 376.1412,-102.6439 385.4017,-107.791 386.5903,-100.8926"/>
</g>
<!-- ergw_gtp_socket_sup -->
<g id="node7" class="node">
<title>ergw_gtp_socket_sup</title>
<ellipse fill="#f0ffff" stroke="#000000" cx="506.5975" cy="-90" rx="87.1846" ry="18"/>
<text text-anchor="middle" x="506.5975" y="-86.3" font-family="Times,serif" font-size="14.00" fill="#000000">ergw_gtp_socket_sup</text>
</g>
<!-- ergw_sup&#45;&gt;ergw_gtp_socket_sup -->
<g id="edge4" class="edge">
<title>ergw_sup&#45;&gt;ergw_gtp_socket_sup</title>
<path fill="none" stroke="#000000" d="M1157.0969,-159.4462C1057.4511,-153.4091 808.9352,-136.5784 602.5975,-108 594.9208,-106.9368 586.9254,-105.6795 578.9698,-104.3313"/>
<polygon fill="#000000" stroke="#000000" points="579.3934,-100.8524 568.9409,-102.5827 578.1911,-107.7484 579.3934,-100.8524"/>
</g>
<!-- ergw_ip_pool_sup -->
<g id="node9" class="node">
<title>ergw_ip_pool_sup</title>
<ellipse fill="#f0ffff" stroke="#000000" cx="687.5975" cy="-90" rx="76.0865" ry="18"/>
<text text-anchor="middle" x="687.5975" y="-86.3" font-family="Times,serif" font-size="14.00" fill="#000000">ergw_ip_pool_sup</text>
</g>
<!-- ergw_sup&#45;&gt;ergw_ip_pool_sup -->
<g id="edge5" class="edge">
<title>ergw_sup&#45;&gt;ergw_ip_pool_sup</title>
<path fill="none" stroke="#000000" d="M1157.881,-157.7156C1080.101,-149.822 912.6863,-131.6074 772.5975,-108 766.1015,-106.9053 759.3482,-105.6603 752.6144,-104.3481"/>
<polygon fill="#000000" stroke="#000000" points="753.2866,-100.9133 742.7948,-102.3871 751.9158,-107.7777 753.2866,-100.9133"/>
</g>
<!-- ergw_ip_pool_reg -->
<g id="node10" class="node">
<title>ergw_ip_pool_reg</title>
<ellipse fill="#adff2f" stroke="#000000" cx="856.5975" cy="-90" rx="75.2868" ry="18"/>
<text text-anchor="middle" x="856.5975" y="-86.3" font-family="Times,serif" font-size="14.00" fill="#000000">ergw_ip_pool_reg</text>
</g>
<!-- ergw_sup&#45;&gt;ergw_ip_pool_reg -->
<g id="edge6" class="edge">
<title>ergw_sup&#45;&gt;ergw_ip_pool_reg</title>
<path fill="none" stroke="#000000" d="M1161.5006,-153.7228C1110.4228,-143.1671 1019.4304,-124.3237 941.5975,-108 935.5908,-106.7402 929.3463,-105.4262 923.0913,-104.107"/>
<polygon fill="#000000" stroke="#000000" points="923.7935,-100.6782 913.2862,-102.0368 922.3474,-107.5272 923.7935,-100.6782"/>
</g>
<!-- ergw_sx_node_reg -->
<g id="node12" class="node">
<title>ergw_sx_node_reg</title>
<ellipse fill="#adff2f" stroke="#000000" cx="1027.5975" cy="-90" rx="77.1866" ry="18"/>
<text text-anchor="middle" x="1027.5975" y="-86.3" font-family="Times,serif" font-size="14.00" fill="#000000">ergw_sx_node_reg</text>
</g>
<!-- ergw_sup&#45;&gt;ergw_sx_node_reg -->
<g id="edge7" class="edge">
<title>ergw_sup&#45;&gt;ergw_sx_node_reg</title>
<path fill="none" stroke="#000000" d="M1170.0874,-148.9613C1143.5764,-137.9913 1105.2672,-122.1392 1075.0465,-109.6341"/>
<polygon fill="#000000" stroke="#000000" points="1076.1224,-106.2915 1065.544,-105.702 1073.4459,-112.7597 1076.1224,-106.2915"/>
</g>
<!-- ergw_sx_node_sup -->
<g id="node13" class="node">
<title>ergw_sx_node_sup</title>
<ellipse fill="#f0ffff" stroke="#000000" cx="1201.5975" cy="-90" rx="78.7863" ry="18"/>
<text text-anchor="middle" x="1201.5975" y="-86.3" font-family="Times,serif" font-size="14.00" fill="#000000">ergw_sx_node_sup</text>
</g>
<!-- ergw_sup&#45;&gt;ergw_sx_node_sup -->
<g id="edge8" class="edge">
<title>ergw_sup&#45;&gt;ergw_sx_node_sup</title>
<path fill="none" stroke="#000000" d="M1201.5975,-143.8314C1201.5975,-136.131 1201.5975,-126.9743 1201.5975,-118.4166"/>
<polygon fill="#000000" stroke="#000000" points="1205.0976,-118.4132 1201.5975,-108.4133 1198.0976,-118.4133 1205.0976,-118.4132"/>
</g>
<!-- ergw_sx_node_mngr -->
<g id="node14" class="node">
<title>ergw_sx_node_mngr</title>
<ellipse fill="#adff2f" stroke="#000000" cx="1383.5975" cy="-90" rx="85.2851" ry="18"/>
<text text-anchor="middle" x="1383.5975" y="-86.3" font-family="Times,serif" font-size="14.00" fill="#000000">ergw_sx_node_mngr</text>
</g>
<!-- ergw_sup&#45;&gt;ergw_sx_node_mngr -->
<g id="edge9" class="edge">
<title>ergw_sup&#45;&gt;ergw_sx_node_mngr</title>
<path fill="none" stroke="#000000" d="M1233.7165,-149.2936C1261.3683,-138.3544 1301.7317,-122.3865 1333.6068,-109.7765"/>
<polygon fill="#000000" stroke="#000000" points="1335.1919,-112.9135 1343.2031,-105.9802 1332.6168,-106.4043 1335.1919,-112.9135"/>
</g>
<!-- gtp_path_reg -->
<g id="node16" class="node">
<title>gtp_path_reg</title>
<ellipse fill="#adff2f" stroke="#000000" cx="1543.5975" cy="-90" rx="57.3905" ry="18"/>
<text text-anchor="middle" x="1543.5975" y="-86.3" font-family="Times,serif" font-size="14.00" fill="#000000">gtp_path_reg</text>
</g>
<!-- ergw_sup&#45;&gt;gtp_path_reg -->
<g id="edge10" class="edge">
<title>ergw_sup&#45;&gt;gtp_path_reg</title>
<path fill="none" stroke="#000000" d="M1242.947,-154.8828C1297.0974,-145.3401 1394.8737,-127.3458 1477.5975,-108 1482.0102,-106.968 1486.5736,-105.8438 1491.145,-104.6778"/>
<polygon fill="#000000" stroke="#000000" points="1492.317,-107.9893 1501.1094,-102.0779 1490.5496,-101.216 1492.317,-107.9893"/>
</g>
<!-- gtp_path_sup -->
<g id="node17" class="node">
<title>gtp_path_sup</title>
<ellipse fill="#f0ffff" stroke="#000000" cx="1676.5975" cy="-90" rx="57.6901" ry="18"/>
<text text-anchor="middle" x="1676.5975" y="-86.3" font-family="Times,serif" font-size="14.00" fill="#000000">gtp_path_sup</text>
</g>
<!-- ergw_sup&#45;&gt;gtp_path_sup -->
<g id="edge11" class="edge">
<title>ergw_sup&#45;&gt;gtp_path_sup</title>
<path fill="none" stroke="#000000" d="M1245.3811,-158.1032C1320.421,-151.0023 1478.2186,-134.225 1609.5975,-108 1614.3663,-107.0481 1619.2975,-105.9487 1624.2211,-104.772"/>
<polygon fill="#000000" stroke="#000000" points="1625.4052,-108.0841 1634.2627,-102.2707 1623.7132,-101.2917 1625.4052,-108.0841"/>
</g>
<!-- gtp_context_reg -->
<g id="node19" class="node">
<title>gtp_context_reg</title>
<ellipse fill="#adff2f" stroke="#000000" cx="1819.5975" cy="-90" rx="67.6881" ry="18"/>
<text text-anchor="middle" x="1819.5975" y="-86.3" font-family="Times,serif" font-size="14.00" fill="#000000">gtp_context_reg</text>
</g>
<!-- ergw_sup&#45;&gt;gtp_context_reg -->
<g id="edge12" class="edge">
<title>ergw_sup&#45;&gt;gtp_context_reg</title>
<path fill="none" stroke="#000000" d="M1246.124,-159.5786C1339.0747,-154.0822 1560.3332,-138.6913 1743.5975,-108 1749.2518,-107.0531 1755.1116,-105.9279 1760.9546,-104.7092"/>
<polygon fill="#000000" stroke="#000000" points="1761.704,-108.1282 1770.7331,-102.585 1760.218,-101.2877 1761.704,-108.1282"/>
</g>
<!-- gtp_context_sup -->
<g id="node20" class="node">
<title>gtp_context_sup</title>
<ellipse fill="#f0ffff" stroke="#000000" cx="1973.5975" cy="-90" rx="68.7879" ry="18"/>
<text text-anchor="middle" x="1973.5975" y="-86.3" font-family="Times,serif" font-size="14.00" fill="#000000">gtp_context_sup</text>
</g>
<!-- ergw_sup&#45;&gt;gtp_context_sup -->
<g id="edge13" class="edge">
<title>ergw_sup&#45;&gt;gtp_context_sup</title>
<path fill="none" stroke="#000000" d="M1246.5897,-160.8722C1357.6012,-157.5767 1653.2141,-145.6785 1896.5975,-108 1902.4206,-107.0985 1908.4556,-105.9933 1914.4678,-104.7781"/>
<polygon fill="#000000" stroke="#000000" points="1915.4666,-108.1442 1924.5229,-102.6455 1914.0143,-101.2965 1915.4666,-108.1442"/>
</g>
<!-- gtp_proxy_ds -->
<g id="node22" class="node">
<title>gtp_proxy_ds</title>
<ellipse fill="#adff2f" stroke="#000000" cx="2119.5975" cy="-90" rx="59.2899" ry="18"/>
<text text-anchor="middle" x="2119.5975" y="-86.3" font-family="Times,serif" font-size="14.00" fill="#000000">gtp_proxy_ds</text>
</g>
<!-- ergw_sup&#45;&gt;gtp_proxy_ds -->
<g id="edge14" class="edge">
<title>ergw_sup&#45;&gt;gtp_proxy_ds</title>
<path fill="none" stroke="#000000" d="M1246.3503,-160.3127C1398.3611,-154.4005 1894.1516,-133.5875 2051.5975,-108 2056.6658,-107.1763 2061.9036,-106.1376 2067.1186,-104.9768"/>
<polygon fill="#000000" stroke="#000000" points="2068.1453,-108.3305 2077.0684,-102.6182 2066.5307,-101.5192 2068.1453,-108.3305"/>
</g>
<!-- tdf_sup -->
<g id="node23" class="node">
<title>tdf_sup</title>
<ellipse fill="#f0ffff" stroke="#000000" cx="2233.5975" cy="-90" rx="37.0935" ry="18"/>
<text text-anchor="middle" x="2233.5975" y="-86.3" font-family="Times,serif" font-size="14.00" fill="#000000">tdf_sup</text>
</g>
<!-- ergw_sup&#45;&gt;tdf_sup -->
<g id="edge15" class="edge">
<title>ergw_sup&#45;&gt;tdf_sup</title>
<path fill="none" stroke="#000000" d="M1246.5117,-161.4304C1414.3376,-159.0091 2004.3594,-147.7939 2187.5975,-108 2190.6013,-107.3477 2193.6658,-106.5251 2196.715,-105.5928"/>
<polygon fill="#000000" stroke="#000000" points="2197.9779,-108.8601 2206.3096,-102.3153 2195.715,-102.2359 2197.9779,-108.8601"/>
</g>
<!-- ergw_gtp_c_socket -->
<g id="node5" class="node">
<title>ergw_gtp_c_socket</title>
<ellipse fill="#adff2f" stroke="#000000" cx="354.5975" cy="-18" rx="79.0865" ry="18"/>
<text text-anchor="middle" x="354.5975" y="-14.3" font-family="Times,serif" font-size="14.00" fill="#000000">ergw_gtp_c_socket</text>
</g>
<!-- ergw_gtp_socket_sup&#45;&gt;ergw_gtp_c_socket -->
<g id="edge17" class="edge">
<title>ergw_gtp_socket_sup&#45;&gt;ergw_gtp_c_socket</title>
<path fill="none" stroke="#000000" d="M471.7256,-73.4817C449.925,-63.1551 421.6633,-49.768 398.3631,-38.7311"/>
<polygon fill="#000000" stroke="#000000" points="399.5805,-35.435 389.0448,-34.3172 396.5839,-41.7612 399.5805,-35.435"/>
</g>
<!-- ergw_gtp_socket -->
<g id="node8" class="node">
<title>ergw_gtp_socket</title>
<ellipse fill="#adff2f" stroke="#000000" cx="522.5975" cy="-18" rx="70.6878" ry="18"/>
<text text-anchor="middle" x="522.5975" y="-14.3" font-family="Times,serif" font-size="14.00" fill="#000000">ergw_gtp_socket</text>
</g>
<!-- ergw_gtp_socket_sup&#45;&gt;ergw_gtp_socket -->
<g id="edge18" class="edge">
<title>ergw_gtp_socket_sup&#45;&gt;ergw_gtp_socket</title>
<path fill="none" stroke="#000000" d="M510.6349,-71.8314C512.3461,-64.131 514.3809,-54.9743 516.2827,-46.4166"/>
<polygon fill="#000000" stroke="#000000" points="519.7529,-46.9344 518.5056,-36.4133 512.9196,-45.4159 519.7529,-46.9344"/>
</g>
<!-- ergw_ip_pool -->
<g id="node11" class="node">
<title>ergw_ip_pool</title>
<ellipse fill="#adff2f" stroke="#000000" cx="687.5975" cy="-18" rx="59.5901" ry="18"/>
<text text-anchor="middle" x="687.5975" y="-14.3" font-family="Times,serif" font-size="14.00" fill="#000000">ergw_ip_pool</text>
</g>
<!-- ergw_ip_pool_sup&#45;&gt;ergw_ip_pool -->
<g id="edge19" class="edge">
<title>ergw_ip_pool_sup&#45;&gt;ergw_ip_pool</title>
<path fill="none" stroke="#000000" d="M687.5975,-71.8314C687.5975,-64.131 687.5975,-54.9743 687.5975,-46.4166"/>
<polygon fill="#000000" stroke="#000000" points="691.0976,-46.4132 687.5975,-36.4133 684.0976,-46.4133 691.0976,-46.4132"/>
</g>
<!-- ergw_sx_node -->
<g id="node15" class="node">
<title>ergw_sx_node</title>
<ellipse fill="#adff2f" stroke="#000000" cx="1201.5975" cy="-18" rx="61.99" ry="18"/>
<text text-anchor="middle" x="1201.5975" y="-14.3" font-family="Times,serif" font-size="14.00" fill="#000000">ergw_sx_node</text>
</g>
<!-- ergw_sx_node_sup&#45;&gt;ergw_sx_node -->
<g id="edge20" class="edge">
<title>ergw_sx_node_sup&#45;&gt;ergw_sx_node</title>
<path fill="none" stroke="#000000" d="M1201.5975,-71.8314C1201.5975,-64.131 1201.5975,-54.9743 1201.5975,-46.4166"/>
<polygon fill="#000000" stroke="#000000" points="1205.0976,-46.4132 1201.5975,-36.4133 1198.0976,-46.4133 1205.0976,-46.4132"/>
</g>
<!-- gtp_path -->
<g id="node18" class="node">
<title>gtp_path</title>
<ellipse fill="#adff2f" stroke="#000000" cx="1676.5975" cy="-18" rx="41.6928" ry="18"/>
<text text-anchor="middle" x="1676.5975" y="-14.3" font-family="Times,serif" font-size="14.00" fill="#000000">gtp_path</text>
</g>
<!-- gtp_path_sup&#45;&gt;gtp_path -->
<g id="edge22" class="edge">
<title>gtp_path_sup&#45;&gt;gtp_path</title>
<path fill="none" stroke="#000000" d="M1676.5975,-71.8314C1676.5975,-64.131 1676.5975,-54.9743 1676.5975,-46.4166"/>
<polygon fill="#000000" stroke="#000000" points="1680.0976,-46.4132 1676.5975,-36.4133 1673.0976,-46.4133 1680.0976,-46.4132"/>
</g>
<!-- gtp_context -->
<g id="node21" class="node">
<title>gtp_context</title>
<ellipse fill="#adff2f" stroke="#000000" cx="1973.5975" cy="-18" rx="51.9908" ry="18"/>
<text text-anchor="middle" x="1973.5975" y="-14.3" font-family="Times,serif" font-size="14.00" fill="#000000">gtp_context</text>
</g>
<!-- gtp_context_sup&#45;&gt;gtp_context -->
<g id="edge21" class="edge">
<title>gtp_context_sup&#45;&gt;gtp_context</title>
<path fill="none" stroke="#000000" d="M1973.5975,-71.8314C1973.5975,-64.131 1973.5975,-54.9743 1973.5975,-46.4166"/>
<polygon fill="#000000" stroke="#000000" points="1977.0976,-46.4132 1973.5975,-36.4133 1970.0976,-46.4133 1977.0976,-46.4132"/>
</g>
<!-- tdf -->
<g id="node24" class="node">
<title>tdf</title>
<ellipse fill="#adff2f" stroke="#000000" cx="2233.5975" cy="-18" rx="27" ry="18"/>
<text text-anchor="middle" x="2233.5975" y="-14.3" font-family="Times,serif" font-size="14.00" fill="#000000">tdf</text>
</g>
<!-- tdf_sup&#45;&gt;tdf -->
<g id="edge23" class="edge">
<title>tdf_sup&#45;&gt;tdf</title>
<path fill="none" stroke="#000000" d="M2233.5975,-71.8314C2233.5975,-64.131 2233.5975,-54.9743 2233.5975,-46.4166"/>
<polygon fill="#000000" stroke="#000000" points="2237.0976,-46.4132 2233.5975,-36.4133 2230.0976,-46.4133 2237.0976,-46.4132"/>
</g>
</g>
</svg>
