<?xml version="1.0" encoding="UTF-8" standalone="no"?>
<!DOCTYPE svg PUBLIC "-//W3C//DTD SVG 1.1//EN"
 "http://www.w3.org/Graphics/SVG/1.1/DTD/svg11.dtd">
<!-- Generated by graphviz version 2.40.1 (20161225.0304)
 -->
<!-- Title: ggsn_gn Pages: 1 -->
<svg width="1779pt" height="260pt"
 viewBox="0.00 0.00 1778.69 260.00" xmlns="http://www.w3.org/2000/svg" xmlns:xlink="http://www.w3.org/1999/xlink">
<g id="graph0" class="graph" transform="scale(1 1) rotate(0) translate(4 256)">
<title>ggsn_gn</title>
<polygon fill="#ffffff" stroke="transparent" points="-4,4 -4,-256 1774.6863,-256 1774.6863,4 -4,4"/>
<!-- 3gpp_qos -->
<g id="node1" class="node">
<title>3gpp_qos</title>
<ellipse fill="#ee82ee" stroke="#000000" cx="275.6943" cy="-162" rx="44.6926" ry="18"/>
<text text-anchor="middle" x="275.6943" y="-158.3" font-family="Times,serif" font-size="14.00" fill="#000000">3gpp_qos</text>
</g>
<!-- ergw -->
<g id="node2" class="node">
<title>ergw</title>
<ellipse fill="#fff8dc" stroke="#000000" cx="366.6943" cy="-162" rx="28.6953" ry="18"/>
<text text-anchor="middle" x="366.6943" y="-158.3" font-family="Times,serif" font-size="14.00" fill="#000000">ergw</text>
</g>
<!-- ergw_charging -->
<g id="node3" class="node">
<title>ergw_charging</title>
<ellipse fill="#e0ffff" stroke="#000000" cx="63.6943" cy="-90" rx="63.8893" ry="18"/>
<text text-anchor="middle" x="63.6943" y="-86.3" font-family="Times,serif" font-size="14.00" fill="#000000">ergw_charging</text>
</g>
<!-- ergw_config -->
<g id="node4" class="node">
<title>ergw_config</title>
<ellipse fill="#e0ffff" stroke="#000000" cx="274.6943" cy="-18" rx="55.4913" ry="18"/>
<text text-anchor="middle" x="274.6943" y="-14.3" font-family="Times,serif" font-size="14.00" fill="#000000">ergw_config</text>
</g>
<!-- ergw_charging&#45;&gt;ergw_config -->
<g id="edge1" class="edge">
<title>ergw_charging&#45;&gt;ergw_config</title>
<path fill="none" stroke="#000000" stroke-dasharray="1,5" d="M104.3773,-76.1177C139.3352,-64.1889 189.7951,-46.9704 226.7166,-34.3715"/>
<polygon fill="#000000" stroke="#000000" points="227.9358,-37.6537 236.2697,-31.1117 225.6752,-31.0288 227.9358,-37.6537"/>
</g>
<!-- ergw_gsn_lib -->
<g id="node5" class="node">
<title>ergw_gsn_lib</title>
<ellipse fill="#fff8dc" stroke="#000000" cx="804.6943" cy="-162" rx="58.4896" ry="18"/>
<text text-anchor="middle" x="804.6943" y="-158.3" font-family="Times,serif" font-size="14.00" fill="#000000">ergw_gsn_lib</text>
</g>
<!-- ergw_pfcp -->
<g id="node9" class="node">
<title>ergw_pfcp</title>
<ellipse fill="#e0ffff" stroke="#000000" cx="804.6943" cy="-90" rx="48.1917" ry="18"/>
<text text-anchor="middle" x="804.6943" y="-86.3" font-family="Times,serif" font-size="14.00" fill="#000000">ergw_pfcp</text>
</g>
<!-- ergw_gsn_lib&#45;&gt;ergw_pfcp -->
<g id="edge2" class="edge">
<title>ergw_gsn_lib&#45;&gt;ergw_pfcp</title>
<path fill="none" stroke="#000000" stroke-dasharray="1,5" d="M804.6943,-143.8314C804.6943,-136.131 804.6943,-126.9743 804.6943,-118.4166"/>
<polygon fill="#000000" stroke="#000000" points="808.1944,-118.4132 804.6943,-108.4133 801.1944,-118.4133 808.1944,-118.4132"/>
</g>
<!-- ergw_sx_node -->
<g id="node10" class="node">
<title>ergw_sx_node</title>
<ellipse fill="#e0ffff" stroke="#000000" cx="676.6943" cy="-90" rx="61.99" ry="18"/>
<text text-anchor="middle" x="676.6943" y="-86.3" font-family="Times,serif" font-size="14.00" fill="#000000">ergw_sx_node</text>
</g>
<!-- ergw_gsn_lib&#45;&gt;ergw_sx_node -->
<g id="edge3" class="edge">
<title>ergw_gsn_lib&#45;&gt;ergw_sx_node</title>
<path fill="none" stroke="#000000" stroke-dasharray="1,5" d="M776.6042,-146.1993C758.2247,-135.8608 734.0032,-122.2362 714.0124,-110.9914"/>
<polygon fill="#000000" stroke="#000000" points="715.593,-107.8648 705.1613,-106.0127 712.1611,-113.9658 715.593,-107.8648"/>
</g>
<!-- ergw_aaa_session -->
<g id="node22" class="node">
<title>ergw_aaa_session</title>
<ellipse fill="#ffe4c4" stroke="#000000" cx="1122.6943" cy="-90" rx="74.187" ry="18"/>
<text text-anchor="middle" x="1122.6943" y="-86.3" font-family="Times,serif" font-size="14.00" fill="#000000">ergw_aaa_session</text>
</g>
<!-- ergw_gsn_lib&#45;&gt;ergw_aaa_session -->
<g id="edge4" class="edge">
<title>ergw_gsn_lib&#45;&gt;ergw_aaa_session</title>
<path fill="none" stroke="#000000" stroke-dasharray="1,5" d="M849.9673,-150.4699C858.819,-148.2754 868.0391,-146.0314 876.6943,-144 894.1809,-139.8958 990.5664,-118.8134 1057.3634,-104.2387"/>
<polygon fill="#000000" stroke="#000000" points="1058.3776,-107.5999 1067.4018,-102.0488 1056.8856,-100.7607 1058.3776,-107.5999"/>
</g>
<!-- ergw_aaa_diameter -->
<g id="node23" class="node">
<title>ergw_aaa_diameter</title>
<ellipse fill="#ffe4c4" stroke="#000000" cx="950.6943" cy="-90" rx="79.8859" ry="18"/>
<text text-anchor="middle" x="950.6943" y="-86.3" font-family="Times,serif" font-size="14.00" fill="#000000">ergw_aaa_diameter</text>
</g>
<!-- ergw_gsn_lib&#45;&gt;ergw_aaa_diameter -->
<g id="edge5" class="edge">
<title>ergw_gsn_lib&#45;&gt;ergw_aaa_diameter</title>
<path fill="none" stroke="#000000" stroke-dasharray="1,5" d="M836.015,-146.5542C857.0766,-136.1676 885.0993,-122.3482 908.1715,-110.9702"/>
<polygon fill="#000000" stroke="#000000" points="909.9742,-113.9837 917.3949,-106.4217 906.8781,-107.7056 909.9742,-113.9837"/>
</g>
<!-- ergw_gtp_c_socket -->
<g id="node6" class="node">
<title>ergw_gtp_c_socket</title>
<ellipse fill="#e0ffff" stroke="#000000" cx="224.6943" cy="-90" rx="79.0865" ry="18"/>
<text text-anchor="middle" x="224.6943" y="-86.3" font-family="Times,serif" font-size="14.00" fill="#000000">ergw_gtp_c_socket</text>
</g>
<!-- ergw_inet -->
<g id="node7" class="node">
<title>ergw_inet</title>
<ellipse fill="#fff8dc" stroke="#000000" cx="1002.6943" cy="-162" rx="46.2923" ry="18"/>
<text text-anchor="middle" x="1002.6943" y="-158.3" font-family="Times,serif" font-size="14.00" fill="#000000">ergw_inet</text>
</g>
<!-- ergw_node_selection -->
<g id="node8" class="node">
<title>ergw_node_selection</title>
<ellipse fill="#fff8dc" stroke="#000000" cx="1040.6943" cy="-18" rx="85.2851" ry="18"/>
<text text-anchor="middle" x="1040.6943" y="-14.3" font-family="Times,serif" font-size="14.00" fill="#000000">ergw_node_selection</text>
</g>
<!-- ergw_sx_node&#45;&gt;ergw_node_selection -->
<g id="edge6" class="edge">
<title>ergw_sx_node&#45;&gt;ergw_node_selection</title>
<path fill="none" stroke="#000000" stroke-dasharray="1,5" d="M722.8022,-77.8406C731.0679,-75.7951 739.6195,-73.7657 747.6943,-72 820.5397,-56.0716 904.2562,-40.9586 963.5003,-30.7937"/>
<polygon fill="#000000" stroke="#000000" points="964.2621,-34.2144 973.5297,-29.0801 963.0831,-27.3144 964.2621,-34.2144"/>
</g>
<!-- ergw_sx_node_reg -->
<g id="node11" class="node">
<title>ergw_sx_node_reg</title>
<ellipse fill="#e0ffff" stroke="#000000" cx="676.6943" cy="-18" rx="77.1866" ry="18"/>
<text text-anchor="middle" x="676.6943" y="-14.3" font-family="Times,serif" font-size="14.00" fill="#000000">ergw_sx_node_reg</text>
</g>
<!-- ergw_sx_node&#45;&gt;ergw_sx_node_reg -->
<g id="edge7" class="edge">
<title>ergw_sx_node&#45;&gt;ergw_sx_node_reg</title>
<path fill="none" stroke="#000000" stroke-dasharray="1,5" d="M676.6943,-71.8314C676.6943,-64.131 676.6943,-54.9743 676.6943,-46.4166"/>
<polygon fill="#000000" stroke="#000000" points="680.1944,-46.4132 676.6943,-36.4133 673.1944,-46.4133 680.1944,-46.4132"/>
</g>
<!-- ggsn_gn -->
<g id="node12" class="node">
<title>ggsn_gn</title>
<ellipse fill="#bc8f8f" stroke="#000000" cx="909.6943" cy="-234" rx="40.0939" ry="18"/>
<text text-anchor="middle" x="909.6943" y="-230.3" font-family="Times,serif" font-size="14.00" fill="#000000">ggsn_gn</text>
</g>
<!-- ggsn_gn&#45;&gt;3gpp_qos -->
<g id="edge13" class="edge">
<title>ggsn_gn&#45;&gt;3gpp_qos</title>
<path fill="none" stroke="#dc143c" d="M869.4232,-231.4922C755.4993,-224.2019 432.4769,-202.1247 328.6943,-180 325.264,-179.2687 321.7474,-178.3858 318.237,-177.4086"/>
<polygon fill="#dc143c" stroke="#dc143c" points="319.0221,-173.9897 308.4374,-174.4524 317.0005,-180.6914 319.0221,-173.9897"/>
</g>
<!-- ggsn_gn&#45;&gt;ergw -->
<g id="edge14" class="edge">
<title>ggsn_gn&#45;&gt;ergw</title>
<path fill="none" stroke="#dc143c" d="M869.891,-231.1911C767.4745,-223.7257 496.7834,-202.4242 409.6943,-180 406.1137,-179.078 402.4415,-177.9118 398.8245,-176.6179"/>
<polygon fill="#dc143c" stroke="#dc143c" points="400.0682,-173.3463 389.4799,-172.9748 397.5255,-179.8682 400.0682,-173.3463"/>
</g>
<!-- ggsn_gn&#45;&gt;ergw_charging -->
<g id="edge15" class="edge">
<title>ggsn_gn&#45;&gt;ergw_charging</title>
<path fill="none" stroke="#dc143c" d="M869.4183,-232.5944C770.5065,-228.629 518.2213,-215.2571 442.6943,-180 421.6137,-170.1592 425.6835,-154.0344 404.6943,-144 296.2671,-92.1638 254.7657,-130.4188 136.6943,-108 131.4044,-106.9956 125.9239,-105.8475 120.4515,-104.6281"/>
<polygon fill="#dc143c" stroke="#dc143c" points="121.1835,-101.2051 110.6531,-102.3719 119.6127,-108.0266 121.1835,-101.2051"/>
</g>
<!-- ggsn_gn&#45;&gt;ergw_gsn_lib -->
<g id="edge16" class="edge">
<title>ggsn_gn&#45;&gt;ergw_gsn_lib</title>
<path fill="none" stroke="#dc143c" d="M887.6829,-218.9064C873.0371,-208.8636 853.5469,-195.4989 837.135,-184.245"/>
<polygon fill="#dc143c" stroke="#dc143c" points="839.1018,-181.3499 828.8751,-178.5811 835.1431,-187.123 839.1018,-181.3499"/>
</g>
<!-- ggsn_gn&#45;&gt;ergw_inet -->
<g id="edge17" class="edge">
<title>ggsn_gn&#45;&gt;ergw_inet</title>
<path fill="none" stroke="#dc143c" d="M929.874,-218.3771C942.7353,-208.4199 959.6022,-195.3617 973.864,-184.3203"/>
<polygon fill="#dc143c" stroke="#dc143c" points="976.1455,-186.9803 981.9102,-178.091 971.8603,-181.4452 976.1455,-186.9803"/>
</g>
<!-- ggsn_gn&#45;&gt;ergw_node_selection -->
<g id="edge18" class="edge">
<title>ggsn_gn&#45;&gt;ergw_node_selection</title>
<path fill="none" stroke="#dc143c" d="M912.0014,-215.9311C915.6829,-195.0897 924.9621,-161.4597 947.6943,-144 1039.5143,-73.4767 1129.6943,-195.341 1205.6943,-108 1238.2937,-70.5361 1173.8131,-45.8076 1116.1609,-31.9133"/>
<polygon fill="#dc143c" stroke="#dc143c" points="1116.7764,-28.4631 1106.2439,-29.6103 1115.1929,-35.2817 1116.7764,-28.4631"/>
</g>
<!-- ggsn_gn&#45;&gt;ergw_sx_node -->
<g id="edge19" class="edge">
<title>ggsn_gn&#45;&gt;ergw_sx_node</title>
<path fill="none" stroke="#dc143c" d="M870.4633,-229.2377C833.2325,-223.0837 777.243,-209.4257 737.6943,-180 715.731,-163.6585 699.0752,-136.9469 688.7624,-116.8601"/>
<polygon fill="#dc143c" stroke="#dc143c" points="691.9001,-115.3092 684.344,-107.8825 685.6195,-118.4003 691.9001,-115.3092"/>
</g>
<!-- gtp_api -->
<g id="node13" class="node">
<title>gtp_api</title>
<ellipse fill="#ffa07a" stroke="#000000" cx="1103.6943" cy="-162" rx="37.0935" ry="18"/>
<text text-anchor="middle" x="1103.6943" y="-158.3" font-family="Times,serif" font-size="14.00" fill="#000000">gtp_api</text>
</g>
<!-- ggsn_gn&#45;&gt;gtp_api -->
<g id="edge28" class="edge">
<title>ggsn_gn&#45;&gt;gtp_api</title>
<path fill="none" stroke="#0000ff" stroke-dasharray="5,2" d="M941.2422,-222.7281C971.2591,-211.9468 1017.6549,-195.136 1057.6943,-180 1060.0808,-179.0979 1062.5338,-178.1623 1065.0057,-177.2133"/>
<polygon fill="#0000ff" stroke="#0000ff" points="1066.4683,-180.4003 1074.5323,-173.5284 1063.943,-173.8717 1066.4683,-180.4003"/>
</g>
<!-- gtp_c_lib -->
<g id="node14" class="node">
<title>gtp_c_lib</title>
<ellipse fill="#ffd39b" stroke="#000000" cx="1202.6943" cy="-162" rx="44.393" ry="18"/>
<text text-anchor="middle" x="1202.6943" y="-158.3" font-family="Times,serif" font-size="14.00" fill="#000000">gtp_c_lib</text>
</g>
<!-- ggsn_gn&#45;&gt;gtp_c_lib -->
<g id="edge20" class="edge">
<title>ggsn_gn&#45;&gt;gtp_c_lib</title>
<path fill="none" stroke="#dc143c" d="M947.0034,-226.8833C994.4618,-217.539 1078.7778,-199.9598 1149.6943,-180 1152.8748,-179.1049 1156.1452,-178.13 1159.4258,-177.1123"/>
<polygon fill="#dc143c" stroke="#dc143c" points="1160.7664,-180.3579 1169.2175,-173.9681 1158.6263,-173.6931 1160.7664,-180.3579"/>
</g>
<!-- gtp_context -->
<g id="node15" class="node">
<title>gtp_context</title>
<ellipse fill="#ffd39b" stroke="#000000" cx="503.6943" cy="-162" rx="51.9908" ry="18"/>
<text text-anchor="middle" x="503.6943" y="-158.3" font-family="Times,serif" font-size="14.00" fill="#000000">gtp_context</text>
</g>
<!-- ggsn_gn&#45;&gt;gtp_context -->
<g id="edge21" class="edge">
<title>ggsn_gn&#45;&gt;gtp_context</title>
<path fill="none" stroke="#dc143c" d="M872.2266,-227.3555C800.6384,-214.66 644.0684,-186.8939 559.8918,-171.966"/>
<polygon fill="#dc143c" stroke="#dc143c" points="560.4534,-168.5111 549.9958,-170.2111 559.231,-175.4036 560.4534,-168.5111"/>
</g>
<!-- gtp_packet -->
<g id="node17" class="node">
<title>gtp_packet</title>
<ellipse fill="#ffd39b" stroke="#000000" cx="1314.6943" cy="-162" rx="49.2915" ry="18"/>
<text text-anchor="middle" x="1314.6943" y="-158.3" font-family="Times,serif" font-size="14.00" fill="#000000">gtp_packet</text>
</g>
<!-- ggsn_gn&#45;&gt;gtp_packet -->
<g id="edge22" class="edge">
<title>ggsn_gn&#45;&gt;gtp_packet</title>
<path fill="none" stroke="#dc143c" d="M948.9537,-229.706C1013.4803,-222.2399 1145.7711,-205.2129 1255.6943,-180 1259.7456,-179.0708 1263.9247,-178.0095 1268.0995,-176.8777"/>
<polygon fill="#dc143c" stroke="#dc143c" points="1269.1042,-180.2309 1277.7715,-174.1376 1267.1961,-173.496 1269.1042,-180.2309"/>
</g>
<!-- gtp_path -->
<g id="node18" class="node">
<title>gtp_path</title>
<ellipse fill="#ffd39b" stroke="#000000" cx="555.6943" cy="-90" rx="41.6928" ry="18"/>
<text text-anchor="middle" x="555.6943" y="-86.3" font-family="Times,serif" font-size="14.00" fill="#000000">gtp_path</text>
</g>
<!-- ggsn_gn&#45;&gt;gtp_path -->
<g id="edge23" class="edge">
<title>ggsn_gn&#45;&gt;gtp_path</title>
<path fill="none" stroke="#dc143c" d="M871.9654,-227.6203C829.6209,-219.6775 759.4254,-204.138 702.6943,-180 659.5241,-161.6319 614.0963,-132.006 585.3678,-111.8008"/>
<polygon fill="#dc143c" stroke="#dc143c" points="587.1868,-108.7995 577.0092,-105.8555 583.1295,-114.5038 587.1868,-108.7995"/>
</g>
<!-- gtp_v1_c -->
<g id="node19" class="node">
<title>gtp_v1_c</title>
<ellipse fill="#ffd39b" stroke="#000000" cx="1425.6943" cy="-162" rx="43.5923" ry="18"/>
<text text-anchor="middle" x="1425.6943" y="-158.3" font-family="Times,serif" font-size="14.00" fill="#000000">gtp_v1_c</text>
</g>
<!-- ggsn_gn&#45;&gt;gtp_v1_c -->
<g id="edge24" class="edge">
<title>ggsn_gn&#45;&gt;gtp_v1_c</title>
<path fill="none" stroke="#dc143c" d="M949.8092,-232.1751C1030.6911,-227.8722 1218.7513,-214.7082 1372.6943,-180 1376.3203,-179.1825 1380.0459,-178.2074 1383.7605,-177.1402"/>
<polygon fill="#dc143c" stroke="#dc143c" points="1384.9637,-180.4319 1393.4912,-174.1445 1382.904,-173.7418 1384.9637,-180.4319"/>
</g>
<!-- itu_e212 -->
<g id="node20" class="node">
<title>itu_e212</title>
<ellipse fill="#ffb6c1" stroke="#000000" cx="1528.6943" cy="-162" rx="41.6928" ry="18"/>
<text text-anchor="middle" x="1528.6943" y="-158.3" font-family="Times,serif" font-size="14.00" fill="#000000">itu_e212</text>
</g>
<!-- ggsn_gn&#45;&gt;itu_e212 -->
<g id="edge25" class="edge">
<title>ggsn_gn&#45;&gt;itu_e212</title>
<path fill="none" stroke="#dc143c" d="M949.9567,-231.497C1062.2883,-224.3044 1377.5018,-202.638 1478.6943,-180 1481.8905,-179.285 1485.1618,-178.4221 1488.4258,-177.4662"/>
<polygon fill="#dc143c" stroke="#dc143c" points="1489.6517,-180.7489 1498.1139,-174.3739 1487.5231,-174.0804 1489.6517,-180.7489"/>
</g>
<!-- ergw_aaa_session_sup -->
<g id="node21" class="node">
<title>ergw_aaa_session_sup</title>
<ellipse fill="#f5f5dc" stroke="#000000" cx="1679.6943" cy="-162" rx="90.9839" ry="18"/>
<text text-anchor="middle" x="1679.6943" y="-158.3" font-family="Times,serif" font-size="14.00" fill="#000000">ergw_aaa_session_sup</text>
</g>
<!-- ggsn_gn&#45;&gt;ergw_aaa_session_sup -->
<g id="edge26" class="edge">
<title>ggsn_gn&#45;&gt;ergw_aaa_session_sup</title>
<path fill="none" stroke="#556b2f" d="M949.8623,-232.1336C1054.1342,-226.9921 1341.8833,-210.9113 1579.6943,-180 1587.8668,-178.9377 1596.3869,-177.6637 1604.8555,-176.2905"/>
<polygon fill="#556b2f" stroke="#556b2f" points="1605.4617,-179.7379 1614.7493,-174.6398 1604.3096,-172.8333 1605.4617,-179.7379"/>
</g>
<!-- ggsn_gn&#45;&gt;ergw_aaa_session -->
<g id="edge27" class="edge">
<title>ggsn_gn&#45;&gt;ergw_aaa_session</title>
<path fill="none" stroke="#556b2f" d="M905.0112,-215.9027C901.0198,-195.9743 898.2361,-164.0987 914.6943,-144 919.4146,-138.2357 999.2477,-118.6359 1058.6064,-104.7137"/>
<polygon fill="#556b2f" stroke="#556b2f" points="1059.7433,-108.0424 1068.6843,-102.3582 1058.1501,-101.2261 1059.7433,-108.0424"/>
</g>
<!-- gtp_context&#45;&gt;ergw_charging -->
<g id="edge8" class="edge">
<title>gtp_context&#45;&gt;ergw_charging</title>
<path fill="none" stroke="#000000" stroke-dasharray="1,5" d="M464.1304,-150.194C455.4746,-147.8966 446.3206,-145.6827 437.6943,-144 305.4555,-118.2051 269.2393,-132.1731 136.6943,-108 131.317,-107.0193 125.7456,-105.8778 120.1876,-104.6544"/>
<polygon fill="#000000" stroke="#000000" points="120.7708,-101.1975 110.2423,-102.3808 119.2107,-108.0214 120.7708,-101.1975"/>
</g>
<!-- gtp_context&#45;&gt;ergw_config -->
<g id="edge9" class="edge">
<title>gtp_context&#45;&gt;ergw_config</title>
<path fill="none" stroke="#000000" stroke-dasharray="1,5" d="M501.0281,-143.7325C497.0909,-123.3443 487.7656,-90.7607 466.6943,-72 446.9152,-54.3897 382.2255,-38.5451 333.3555,-28.6434"/>
<polygon fill="#000000" stroke="#000000" points="333.9909,-25.2013 323.5002,-26.6829 332.6251,-32.0667 333.9909,-25.2013"/>
</g>
<!-- gtp_context&#45;&gt;ergw_gtp_c_socket -->
<g id="edge10" class="edge">
<title>gtp_context&#45;&gt;ergw_gtp_c_socket</title>
<path fill="none" stroke="#000000" stroke-dasharray="1,5" d="M462.8849,-150.7472C454.5576,-148.4856 445.8494,-146.1456 437.6943,-144 387.6568,-130.8351 330.8534,-116.4628 288.4977,-105.8575"/>
<polygon fill="#000000" stroke="#000000" points="289.1508,-102.4131 278.6004,-103.3821 287.4523,-109.204 289.1508,-102.4131"/>
</g>
<!-- gtp_context_reg -->
<g id="node16" class="node">
<title>gtp_context_reg</title>
<ellipse fill="#e0ffff" stroke="#000000" cx="389.6943" cy="-90" rx="67.6881" ry="18"/>
<text text-anchor="middle" x="389.6943" y="-86.3" font-family="Times,serif" font-size="14.00" fill="#000000">gtp_context_reg</text>
</g>
<!-- gtp_context&#45;&gt;gtp_context_reg -->
<g id="edge11" class="edge">
<title>gtp_context&#45;&gt;gtp_context_reg</title>
<path fill="none" stroke="#000000" stroke-dasharray="1,5" d="M478.6766,-146.1993C462.9371,-136.2586 442.3874,-123.2798 425.0021,-112.2996"/>
<polygon fill="#000000" stroke="#000000" points="426.5653,-109.1473 416.2414,-106.7665 422.8273,-115.0657 426.5653,-109.1473"/>
</g>
<!-- gtp_context&#45;&gt;gtp_path -->
<g id="edge12" class="edge">
<title>gtp_context&#45;&gt;gtp_path</title>
<path fill="none" stroke="#000000" stroke-dasharray="1,5" d="M516.5483,-144.2022C522.7655,-135.5938 530.3436,-125.1011 537.1702,-115.6488"/>
<polygon fill="#000000" stroke="#000000" points="540.1501,-117.5006 543.1677,-107.3446 534.4754,-113.4022 540.1501,-117.5006"/>
</g>
</g>
</svg>
