<?xml version="1.0" encoding="UTF-8" standalone="no"?>
<!DOCTYPE svg PUBLIC "-//W3C//DTD SVG 1.1//EN"
 "http://www.w3.org/Graphics/SVG/1.1/DTD/svg11.dtd">
<!-- Generated by graphviz version 2.40.1 (20161225.0304)
 -->
<!-- Title: pgw_s5s8 Pages: 1 -->
<svg width="1735pt" height="260pt"
 viewBox="0.00 0.00 1734.69 260.00" xmlns="http://www.w3.org/2000/svg" xmlns:xlink="http://www.w3.org/1999/xlink">
<g id="graph0" class="graph" transform="scale(1 1) rotate(0) translate(4 256)">
<title>pgw_s5s8</title>
<polygon fill="#ffffff" stroke="transparent" points="-4,4 -4,-256 1730.6863,-256 1730.6863,4 -4,4"/>
<!-- ergw -->
<g id="node1" class="node">
<title>ergw</title>
<ellipse fill="#fff8dc" stroke="#000000" cx="348.6943" cy="-162" rx="28.6953" ry="18"/>
<text text-anchor="middle" x="348.6943" y="-158.3" font-family="Times,serif" font-size="14.00" fill="#000000">ergw</text>
</g>
<!-- ergw_charging -->
<g id="node2" class="node">
<title>ergw_charging</title>
<ellipse fill="#e0ffff" stroke="#000000" cx="63.6943" cy="-90" rx="63.8893" ry="18"/>
<text text-anchor="middle" x="63.6943" y="-86.3" font-family="Times,serif" font-size="14.00" fill="#000000">ergw_charging</text>
</g>
<!-- ergw_config -->
<g id="node3" class="node">
<title>ergw_config</title>
<ellipse fill="#e0ffff" stroke="#000000" cx="274.6943" cy="-18" rx="55.4913" ry="18"/>
<text text-anchor="middle" x="274.6943" y="-14.3" font-family="Times,serif" font-size="14.00" fill="#000000">ergw_config</text>
</g>
<!-- ergw_charging&#45;&gt;ergw_config -->
<g id="edge1" class="edge">
<title>ergw_charging&#45;&gt;ergw_config</title>
<path fill="none" stroke="#000000" stroke-dasharray="1,5" d="M104.3773,-76.1177C139.3352,-64.1889 189.7951,-46.9704 226.7166,-34.3715"/>
<polygon fill="#000000" stroke="#000000" points="227.9358,-37.6537 236.2697,-31.1117 225.6752,-31.0288 227.9358,-37.6537"/>
</g>
<!-- ergw_gsn_lib -->
<g id="node4" class="node">
<title>ergw_gsn_lib</title>
<ellipse fill="#fff8dc" stroke="#000000" cx="877.6943" cy="-162" rx="58.4896" ry="18"/>
<text text-anchor="middle" x="877.6943" y="-158.3" font-family="Times,serif" font-size="14.00" fill="#000000">ergw_gsn_lib</text>
</g>
<!-- ergw_pfcp -->
<g id="node8" class="node">
<title>ergw_pfcp</title>
<ellipse fill="#e0ffff" stroke="#000000" cx="804.6943" cy="-90" rx="48.1917" ry="18"/>
<text text-anchor="middle" x="804.6943" y="-86.3" font-family="Times,serif" font-size="14.00" fill="#000000">ergw_pfcp</text>
</g>
<!-- ergw_gsn_lib&#45;&gt;ergw_pfcp -->
<g id="edge2" class="edge">
<title>ergw_gsn_lib&#45;&gt;ergw_pfcp</title>
<path fill="none" stroke="#000000" stroke-dasharray="1,5" d="M860.0231,-144.5708C850.877,-135.55 839.5589,-124.387 829.5469,-114.5121"/>
<polygon fill="#000000" stroke="#000000" points="831.7803,-111.799 822.2029,-107.2687 826.8648,-116.7827 831.7803,-111.799"/>
</g>
<!-- ergw_sx_node -->
<g id="node9" class="node">
<title>ergw_sx_node</title>
<ellipse fill="#e0ffff" stroke="#000000" cx="676.6943" cy="-90" rx="61.99" ry="18"/>
<text text-anchor="middle" x="676.6943" y="-86.3" font-family="Times,serif" font-size="14.00" fill="#000000">ergw_sx_node</text>
</g>
<!-- ergw_gsn_lib&#45;&gt;ergw_sx_node -->
<g id="edge3" class="edge">
<title>ergw_gsn_lib&#45;&gt;ergw_sx_node</title>
<path fill="none" stroke="#000000" stroke-dasharray="1,5" d="M839.4147,-148.2879C807.0351,-136.6892 760.4492,-120.0018 725.4141,-107.4518"/>
<polygon fill="#000000" stroke="#000000" points="726.4546,-104.1068 715.86,-104.0295 724.094,-110.6968 726.4546,-104.1068"/>
</g>
<!-- ergw_aaa_session -->
<g id="node20" class="node">
<title>ergw_aaa_session</title>
<ellipse fill="#ffe4c4" stroke="#000000" cx="1122.6943" cy="-90" rx="74.187" ry="18"/>
<text text-anchor="middle" x="1122.6943" y="-86.3" font-family="Times,serif" font-size="14.00" fill="#000000">ergw_aaa_session</text>
</g>
<!-- ergw_gsn_lib&#45;&gt;ergw_aaa_session -->
<g id="edge4" class="edge">
<title>ergw_gsn_lib&#45;&gt;ergw_aaa_session</title>
<path fill="none" stroke="#000000" stroke-dasharray="1,5" d="M920.0904,-149.5408C960.3259,-137.7164 1021.0925,-119.8585 1065.582,-106.784"/>
<polygon fill="#000000" stroke="#000000" points="1066.7736,-110.0819 1075.381,-103.9043 1064.7999,-103.3659 1066.7736,-110.0819"/>
</g>
<!-- ergw_aaa_diameter -->
<g id="node21" class="node">
<title>ergw_aaa_diameter</title>
<ellipse fill="#ffe4c4" stroke="#000000" cx="950.6943" cy="-90" rx="79.8859" ry="18"/>
<text text-anchor="middle" x="950.6943" y="-86.3" font-family="Times,serif" font-size="14.00" fill="#000000">ergw_aaa_diameter</text>
</g>
<!-- ergw_gsn_lib&#45;&gt;ergw_aaa_diameter -->
<g id="edge5" class="edge">
<title>ergw_gsn_lib&#45;&gt;ergw_aaa_diameter</title>
<path fill="none" stroke="#000000" stroke-dasharray="1,5" d="M895.3656,-144.5708C904.3772,-135.6827 915.4974,-124.7148 925.3992,-114.9486"/>
<polygon fill="#000000" stroke="#000000" points="928.0167,-117.2829 932.6787,-107.7689 923.1012,-112.2992 928.0167,-117.2829"/>
</g>
<!-- ergw_gtp_c_socket -->
<g id="node5" class="node">
<title>ergw_gtp_c_socket</title>
<ellipse fill="#e0ffff" stroke="#000000" cx="224.6943" cy="-90" rx="79.0865" ry="18"/>
<text text-anchor="middle" x="224.6943" y="-86.3" font-family="Times,serif" font-size="14.00" fill="#000000">ergw_gtp_c_socket</text>
</g>
<!-- ergw_inet -->
<g id="node6" class="node">
<title>ergw_inet</title>
<ellipse fill="#fff8dc" stroke="#000000" cx="1075.6943" cy="-162" rx="46.2923" ry="18"/>
<text text-anchor="middle" x="1075.6943" y="-158.3" font-family="Times,serif" font-size="14.00" fill="#000000">ergw_inet</text>
</g>
<!-- ergw_node_selection -->
<g id="node7" class="node">
<title>ergw_node_selection</title>
<ellipse fill="#fff8dc" stroke="#000000" cx="1040.6943" cy="-18" rx="85.2851" ry="18"/>
<text text-anchor="middle" x="1040.6943" y="-14.3" font-family="Times,serif" font-size="14.00" fill="#000000">ergw_node_selection</text>
</g>
<!-- ergw_sx_node&#45;&gt;ergw_node_selection -->
<g id="edge6" class="edge">
<title>ergw_sx_node&#45;&gt;ergw_node_selection</title>
<path fill="none" stroke="#000000" stroke-dasharray="1,5" d="M722.8022,-77.8406C731.0679,-75.7951 739.6195,-73.7657 747.6943,-72 820.5397,-56.0716 904.2562,-40.9586 963.5003,-30.7937"/>
<polygon fill="#000000" stroke="#000000" points="964.2621,-34.2144 973.5297,-29.0801 963.0831,-27.3144 964.2621,-34.2144"/>
</g>
<!-- ergw_sx_node_reg -->
<g id="node10" class="node">
<title>ergw_sx_node_reg</title>
<ellipse fill="#e0ffff" stroke="#000000" cx="676.6943" cy="-18" rx="77.1866" ry="18"/>
<text text-anchor="middle" x="676.6943" y="-14.3" font-family="Times,serif" font-size="14.00" fill="#000000">ergw_sx_node_reg</text>
</g>
<!-- ergw_sx_node&#45;&gt;ergw_sx_node_reg -->
<g id="edge7" class="edge">
<title>ergw_sx_node&#45;&gt;ergw_sx_node_reg</title>
<path fill="none" stroke="#000000" stroke-dasharray="1,5" d="M676.6943,-71.8314C676.6943,-64.131 676.6943,-54.9743 676.6943,-46.4166"/>
<polygon fill="#000000" stroke="#000000" points="680.1944,-46.4132 676.6943,-36.4133 673.1944,-46.4133 680.1944,-46.4132"/>
</g>
<!-- gtp_api -->
<g id="node11" class="node">
<title>gtp_api</title>
<ellipse fill="#ffa07a" stroke="#000000" cx="1176.6943" cy="-162" rx="37.0935" ry="18"/>
<text text-anchor="middle" x="1176.6943" y="-158.3" font-family="Times,serif" font-size="14.00" fill="#000000">gtp_api</text>
</g>
<!-- gtp_c_lib -->
<g id="node12" class="node">
<title>gtp_c_lib</title>
<ellipse fill="#ffd39b" stroke="#000000" cx="1275.6943" cy="-162" rx="44.393" ry="18"/>
<text text-anchor="middle" x="1275.6943" y="-158.3" font-family="Times,serif" font-size="14.00" fill="#000000">gtp_c_lib</text>
</g>
<!-- gtp_context -->
<g id="node13" class="node">
<title>gtp_context</title>
<ellipse fill="#ffd39b" stroke="#000000" cx="485.6943" cy="-162" rx="51.9908" ry="18"/>
<text text-anchor="middle" x="485.6943" y="-158.3" font-family="Times,serif" font-size="14.00" fill="#000000">gtp_context</text>
</g>
<!-- gtp_context&#45;&gt;ergw_charging -->
<g id="edge8" class="edge">
<title>gtp_context&#45;&gt;ergw_charging</title>
<path fill="none" stroke="#000000" stroke-dasharray="1,5" d="M446.1208,-150.243C437.4655,-147.9425 428.3143,-145.715 419.6943,-144 295.3403,-119.2591 261.3422,-131.2158 136.6943,-108 131.3207,-106.9992 125.7519,-105.8441 120.1954,-104.6121"/>
<polygon fill="#000000" stroke="#000000" points="120.7818,-101.1557 110.252,-102.3281 119.2146,-107.9781 120.7818,-101.1557"/>
</g>
<!-- gtp_context&#45;&gt;ergw_config -->
<g id="edge9" class="edge">
<title>gtp_context&#45;&gt;ergw_config</title>
<path fill="none" stroke="#000000" stroke-dasharray="1,5" d="M487.0098,-143.9899C487.4514,-123.8379 484.9186,-91.4707 466.6943,-72 448.6527,-52.7243 383.9768,-37.2518 334.6267,-27.8913"/>
<polygon fill="#000000" stroke="#000000" points="335.136,-24.4261 324.6655,-26.0444 333.8599,-31.3088 335.136,-24.4261"/>
</g>
<!-- gtp_context&#45;&gt;ergw_gtp_c_socket -->
<g id="edge10" class="edge">
<title>gtp_context&#45;&gt;ergw_gtp_c_socket</title>
<path fill="none" stroke="#000000" stroke-dasharray="1,5" d="M444.9131,-150.75C402.1254,-138.9465 334.3971,-120.2628 285.341,-106.7301"/>
<polygon fill="#000000" stroke="#000000" points="286.0529,-103.2958 275.4822,-104.0104 284.1914,-110.0438 286.0529,-103.2958"/>
</g>
<!-- gtp_context_reg -->
<g id="node14" class="node">
<title>gtp_context_reg</title>
<ellipse fill="#e0ffff" stroke="#000000" cx="389.6943" cy="-90" rx="67.6881" ry="18"/>
<text text-anchor="middle" x="389.6943" y="-86.3" font-family="Times,serif" font-size="14.00" fill="#000000">gtp_context_reg</text>
</g>
<!-- gtp_context&#45;&gt;gtp_context_reg -->
<g id="edge11" class="edge">
<title>gtp_context&#45;&gt;gtp_context_reg</title>
<path fill="none" stroke="#000000" stroke-dasharray="1,5" d="M463.4287,-145.3008C450.7688,-135.8058 434.7179,-123.7677 420.8265,-113.3491"/>
<polygon fill="#000000" stroke="#000000" points="422.6059,-110.3087 412.5059,-107.1086 418.4059,-115.9087 422.6059,-110.3087"/>
</g>
<!-- gtp_path -->
<g id="node15" class="node">
<title>gtp_path</title>
<ellipse fill="#ffd39b" stroke="#000000" cx="555.6943" cy="-90" rx="41.6928" ry="18"/>
<text text-anchor="middle" x="555.6943" y="-86.3" font-family="Times,serif" font-size="14.00" fill="#000000">gtp_path</text>
</g>
<!-- gtp_context&#45;&gt;gtp_path -->
<g id="edge12" class="edge">
<title>gtp_context&#45;&gt;gtp_path</title>
<path fill="none" stroke="#000000" stroke-dasharray="1,5" d="M502.2834,-144.937C511.1754,-135.791 522.2837,-124.3652 532.0635,-114.3061"/>
<polygon fill="#000000" stroke="#000000" points="534.7631,-116.5503 539.2244,-106.9405 529.7441,-111.6707 534.7631,-116.5503"/>
</g>
<!-- gtp_v2_c -->
<g id="node16" class="node">
<title>gtp_v2_c</title>
<ellipse fill="#ffd39b" stroke="#000000" cx="1381.6943" cy="-162" rx="43.5923" ry="18"/>
<text text-anchor="middle" x="1381.6943" y="-158.3" font-family="Times,serif" font-size="14.00" fill="#000000">gtp_v2_c</text>
</g>
<!-- itu_e212 -->
<g id="node17" class="node">
<title>itu_e212</title>
<ellipse fill="#ffb6c1" stroke="#000000" cx="1484.6943" cy="-162" rx="41.6928" ry="18"/>
<text text-anchor="middle" x="1484.6943" y="-158.3" font-family="Times,serif" font-size="14.00" fill="#000000">itu_e212</text>
</g>
<!-- pgw_s5s8 -->
<g id="node18" class="node">
<title>pgw_s5s8</title>
<ellipse fill="#ff6347" stroke="#000000" cx="982.6943" cy="-234" rx="46.2923" ry="18"/>
<text text-anchor="middle" x="982.6943" y="-230.3" font-family="Times,serif" font-size="14.00" fill="#000000">pgw_s5s8</text>
</g>
<!-- pgw_s5s8&#45;&gt;ergw -->
<g id="edge13" class="edge">
<title>pgw_s5s8&#45;&gt;ergw</title>
<path fill="none" stroke="#dc143c" d="M936.5299,-231.604C816.1626,-225.066 494.9291,-205.6772 391.6943,-180 388.1062,-179.1075 384.4292,-177.9603 380.8094,-176.6777"/>
<polygon fill="#dc143c" stroke="#dc143c" points="382.0501,-173.4049 371.4613,-173.0483 379.5166,-179.9304 382.0501,-173.4049"/>
</g>
<!-- pgw_s5s8&#45;&gt;ergw_charging -->
<g id="edge14" class="edge">
<title>pgw_s5s8&#45;&gt;ergw_charging</title>
<path fill="none" stroke="#dc143c" d="M936.3176,-233.3564C819.4245,-231.1282 515.5909,-221.4042 424.6943,-180 403.5229,-170.3562 407.6357,-154.1338 386.6943,-144 285.6467,-95.1015 246.8805,-129.4636 136.6943,-108 131.4092,-106.9705 125.932,-105.8054 120.4617,-104.5752"/>
<polygon fill="#dc143c" stroke="#dc143c" points="121.1978,-101.1531 110.6658,-102.3056 119.6178,-107.9724 121.1978,-101.1531"/>
</g>
<!-- pgw_s5s8&#45;&gt;ergw_gsn_lib -->
<g id="edge15" class="edge">
<title>pgw_s5s8&#45;&gt;ergw_gsn_lib</title>
<path fill="none" stroke="#dc143c" d="M959.6517,-218.1993C945.1859,-208.28 926.3087,-195.3355 910.3178,-184.3704"/>
<polygon fill="#dc143c" stroke="#dc143c" points="912.004,-181.2828 901.7773,-178.514 908.0452,-187.0559 912.004,-181.2828"/>
</g>
<!-- pgw_s5s8&#45;&gt;ergw_inet -->
<g id="edge16" class="edge">
<title>pgw_s5s8&#45;&gt;ergw_inet</title>
<path fill="none" stroke="#dc143c" d="M1003.7975,-217.6621C1016.4016,-207.9041 1032.5967,-195.3659 1046.4243,-184.6607"/>
<polygon fill="#dc143c" stroke="#dc143c" points="1048.9101,-187.1626 1054.6747,-178.2733 1044.6248,-181.6275 1048.9101,-187.1626"/>
</g>
<!-- pgw_s5s8&#45;&gt;ergw_node_selection -->
<g id="edge17" class="edge">
<title>pgw_s5s8&#45;&gt;ergw_node_selection</title>
<path fill="none" stroke="#dc143c" d="M985.2349,-215.7721C989.1182,-195.104 998.5694,-161.9552 1020.6943,-144 1085.7358,-91.2164 1152.4202,-172.6403 1205.6943,-108 1237.1319,-69.8552 1173.587,-45.3399 1116.4621,-31.6805"/>
<polygon fill="#dc143c" stroke="#dc143c" points="1117.1621,-28.2502 1106.6319,-29.4183 1115.5922,-35.0719 1117.1621,-28.2502"/>
</g>
<!-- pgw_s5s8&#45;&gt;ergw_sx_node -->
<g id="edge18" class="edge">
<title>pgw_s5s8&#45;&gt;ergw_sx_node</title>
<path fill="none" stroke="#dc143c" d="M942.5316,-224.8793C906.8653,-215.9736 853.8586,-200.735 810.6943,-180 772.1728,-161.4953 731.9958,-133.1007 705.8047,-113.165"/>
<polygon fill="#dc143c" stroke="#dc143c" points="707.8716,-110.3392 697.8124,-107.0129 703.6018,-115.8861 707.8716,-110.3392"/>
</g>
<!-- pgw_s5s8&#45;&gt;gtp_api -->
<g id="edge26" class="edge">
<title>pgw_s5s8&#45;&gt;gtp_api</title>
<path fill="none" stroke="#0000ff" stroke-dasharray="5,2" d="M1016.8716,-221.7834C1046.922,-210.9815 1091.8062,-194.7008 1130.6943,-180 1133.0808,-179.0979 1135.5338,-178.1623 1138.0057,-177.2133"/>
<polygon fill="#0000ff" stroke="#0000ff" points="1139.4683,-180.4003 1147.5323,-173.5284 1136.943,-173.8717 1139.4683,-180.4003"/>
</g>
<!-- pgw_s5s8&#45;&gt;gtp_c_lib -->
<g id="edge19" class="edge">
<title>pgw_s5s8&#45;&gt;gtp_c_lib</title>
<path fill="none" stroke="#dc143c" d="M1024.2219,-226.0501C1072.3384,-216.518 1153.8334,-199.3813 1222.6943,-180 1225.8748,-179.1049 1229.1452,-178.13 1232.4258,-177.1123"/>
<polygon fill="#dc143c" stroke="#dc143c" points="1233.7664,-180.3579 1242.2175,-173.9681 1231.6263,-173.6931 1233.7664,-180.3579"/>
</g>
<!-- pgw_s5s8&#45;&gt;gtp_context -->
<g id="edge20" class="edge">
<title>pgw_s5s8&#45;&gt;gtp_context</title>
<path fill="none" stroke="#dc143c" d="M939.0245,-227.6736C849.3692,-214.6853 644.5238,-185.0095 543.7962,-170.4172"/>
<polygon fill="#dc143c" stroke="#dc143c" points="544.194,-166.9383 533.7955,-168.9684 543.1904,-173.866 544.194,-166.9383"/>
</g>
<!-- pgw_s5s8&#45;&gt;gtp_path -->
<g id="edge21" class="edge">
<title>pgw_s5s8&#45;&gt;gtp_path</title>
<path fill="none" stroke="#dc143c" d="M939.9597,-227.1657C891.8927,-218.8154 811.8941,-202.9119 745.6943,-180 689.4128,-160.5208 627.6873,-129.3093 590.3229,-109.2354"/>
<polygon fill="#dc143c" stroke="#dc143c" points="591.8267,-106.0696 581.3666,-104.3858 588.4936,-112.2251 591.8267,-106.0696"/>
</g>
<!-- pgw_s5s8&#45;&gt;gtp_v2_c -->
<g id="edge22" class="edge">
<title>pgw_s5s8&#45;&gt;gtp_v2_c</title>
<path fill="none" stroke="#dc143c" d="M1027.4209,-229.5172C1093.8297,-222.3012 1222.1308,-206.2033 1328.6943,-180 1332.2537,-179.1248 1335.9147,-178.1167 1339.5702,-177.034"/>
<polygon fill="#dc143c" stroke="#dc143c" points="1340.6615,-180.3599 1349.1599,-174.0333 1338.571,-173.6793 1340.6615,-180.3599"/>
</g>
<!-- pgw_s5s8&#45;&gt;itu_e212 -->
<g id="edge23" class="edge">
<title>pgw_s5s8&#45;&gt;itu_e212</title>
<path fill="none" stroke="#dc143c" d="M1028.8458,-231.939C1111.3048,-227.4961 1288.9523,-214.4676 1434.6943,-180 1437.8816,-179.2462 1441.1464,-178.3554 1444.406,-177.3799"/>
<polygon fill="#dc143c" stroke="#dc143c" points="1445.6463,-180.6574 1454.086,-174.2524 1443.4942,-173.9964 1445.6463,-180.6574"/>
</g>
<!-- ergw_aaa_session_sup -->
<g id="node19" class="node">
<title>ergw_aaa_session_sup</title>
<ellipse fill="#f5f5dc" stroke="#000000" cx="1635.6943" cy="-162" rx="90.9839" ry="18"/>
<text text-anchor="middle" x="1635.6943" y="-158.3" font-family="Times,serif" font-size="14.00" fill="#000000">ergw_aaa_session_sup</text>
</g>
<!-- pgw_s5s8&#45;&gt;ergw_aaa_session_sup -->
<g id="edge24" class="edge">
<title>pgw_s5s8&#45;&gt;ergw_aaa_session_sup</title>
<path fill="none" stroke="#556b2f" d="M1028.3611,-230.7954C1123.1759,-223.8661 1348.1769,-205.9888 1535.6943,-180 1543.6446,-178.8981 1551.9278,-177.6193 1560.1743,-176.2613"/>
<polygon fill="#556b2f" stroke="#556b2f" points="1560.9116,-179.6865 1570.1903,-174.5721 1559.7475,-172.784 1560.9116,-179.6865"/>
</g>
<!-- pgw_s5s8&#45;&gt;ergw_aaa_session -->
<g id="edge25" class="edge">
<title>pgw_s5s8&#45;&gt;ergw_aaa_session</title>
<path fill="none" stroke="#556b2f" d="M978.4303,-215.9181C974.9079,-196.2974 972.6307,-164.9717 987.6943,-144 997.27,-130.6688 1031.9549,-116.9468 1063.7672,-106.6712"/>
<polygon fill="#556b2f" stroke="#556b2f" points="1065.0321,-109.9423 1073.5168,-103.5972 1062.9271,-103.2663 1065.0321,-109.9423"/>
</g>
</g>
</svg>
